# xmcd CD database file
#
# Track frame offsets:
#	182
#	30315
#	53040
#	78385
#	114335
#	137130
#	160692
#	191627
#	210422
#
# Disc length: 3101 seconds
#
# Revision: 0
# Processed by: cddbd v1.4PL0 Copyright (c) Steve Scherf et al.
# Submitted via: NeoAudio 9.9.9
#
DISCID=6a0c1b09
DTITLE=Michel Pépé - Visions
DYEAR=1991
DGENRE=New Age
TTITLE0=Inspiration
TTITLE1=Nouvelle naissance
TTITLE2=Louanges
TTITLE3=Joie quantique
TTITLE4=Visions
TTITLE5=Charisme
TTITLE6=Ouverture
TTITLE7=Appel
TTITLE8=Hommage
EXTD=YEAR: 1991
EXTT0=
EXTT1=
EXTT2=
EXTT3=
EXTT4=
EXTT5=
EXTT6=
EXTT7=
EXTT8=
PLAYORDER=
